<svg width="128" height="83" viewBox="0 0 128 83" fill="none" xmlns="http://www.w3.org/2000/svg">
<path d="M88.8 31.5V39.9C88.8 40.4569 88.5788 40.9911 88.185 41.3849C87.7911 41.7787 87.257 42 86.7 42C86.1431 42 85.6089 41.7787 85.2151 41.3849C84.8213 40.9911 84.6 40.4569 84.6 39.9C84.6 39.9 84.852 37.8 80.4 37.8H76.2V48.3C76.2 48.8569 75.9788 49.3911 75.585 49.7849C75.1911 50.1787 74.657 50.4 74.1 50.4H40.5C39.9431 50.4 39.4089 50.1787 39.0151 49.7849C38.6213 49.3911 38.4 48.8569 38.4 48.3V31.5C38.4 30.943 38.6213 30.4089 39.0151 30.0151C39.4089 29.6212 39.9431 29.4 40.5 29.4H74.1C74.657 29.4 75.1911 29.6212 75.585 30.0151C75.9788 30.4089 76.2 30.943 76.2 31.5V33.6H80.4C84.852 33.6 84.6 31.5 84.6 31.5C84.6 30.943 84.8213 30.4089 85.2151 30.0151C85.6089 29.6212 86.1431 29.4 86.7 29.4C87.257 29.4 87.7911 29.6212 88.185 30.0151C88.5788 30.4089 88.8 30.943 88.8 31.5ZM46.8 12.6C44.5722 12.6 42.4356 13.485 40.8603 15.0603C39.285 16.6356 38.4 18.7722 38.4 21C38.4 23.2278 39.285 25.3644 40.8603 26.9397C42.4356 28.515 44.5722 29.4 46.8 29.4C49.0278 29.4 51.1644 28.515 52.7397 26.9397C54.315 25.3644 55.2 23.2278 55.2 21C55.2 18.7722 54.315 16.6356 52.7397 15.0603C51.1644 13.485 49.0278 12.6 46.8 12.6ZM46.8 25.2C45.6861 25.2 44.6178 24.7575 43.8302 23.9698C43.0425 23.1822 42.6 22.1139 42.6 21C42.6 19.8861 43.0425 18.8178 43.8302 18.0301C44.6178 17.2425 45.6861 16.8 46.8 16.8C47.9139 16.8 48.9822 17.2425 49.7699 18.0301C50.5575 18.8178 51 19.8861 51 21C51 22.1139 50.5575 23.1822 49.7699 23.9698C48.9822 24.7575 47.9139 25.2 46.8 25.2ZM65.7 8.39999C62.9153 8.39999 60.2445 9.50624 58.2754 11.4754C56.3063 13.4445 55.2 16.1152 55.2 18.9C55.2 21.6848 56.3063 24.3555 58.2754 26.3246C60.2445 28.2937 62.9153 29.4 65.7 29.4C68.4848 29.4 71.1555 28.2937 73.1246 26.3246C75.0938 24.3555 76.2 21.6848 76.2 18.9C76.2 16.1152 75.0938 13.4445 73.1246 11.4754C71.1555 9.50624 68.4848 8.39999 65.7 8.39999ZM65.7 25.2C64.0292 25.2 62.4267 24.5362 61.2453 23.3548C60.0638 22.1733 59.4 20.5709 59.4 18.9C59.4 17.2291 60.0638 15.6267 61.2453 14.4452C62.4267 13.2637 64.0292 12.6 65.7 12.6C67.3709 12.6 68.9733 13.2637 70.1548 14.4452C71.3363 15.6267 72 17.2291 72 18.9C72 20.5709 71.3363 22.1733 70.1548 23.3548C68.9733 24.5362 67.3709 25.2 65.7 25.2Z" fill="#FEE502"/>
<path d="M119.939 82.163C118.862 82.163 117.898 81.9541 117.047 81.5363C116.211 81.1185 115.56 80.4837 115.094 79.6321C114.628 78.7643 114.395 77.6635 114.395 76.3298V69.002H118.155V75.7754C118.155 76.852 118.38 77.6475 118.83 78.1617C119.296 78.6598 119.947 78.9089 120.783 78.9089C121.361 78.9089 121.875 78.7884 122.325 78.5474C122.775 78.2902 123.129 77.9046 123.386 77.3903C123.643 76.86 123.772 76.2012 123.772 75.4138V69.002H127.532V81.9702H123.965V78.4027L124.615 79.4392C124.181 80.3391 123.539 81.0221 122.687 81.4881C121.851 81.938 120.935 82.163 119.939 82.163Z" fill="white"/>
<path d="M96.8603 78.4268V75.7995L104.815 65.0971H108.912L101.127 75.7995L99.2225 75.2451H112.504V78.4268H96.8603ZM105.948 81.9702V78.4268L106.068 75.2451V72.0874H109.756V81.9702H105.948Z" fill="white"/>
<path d="M90.9262 81.9702V79.4392L90.6851 78.8848V74.3532C90.6851 73.5497 90.436 72.923 89.9379 72.473C89.4558 72.0231 88.7086 71.7981 87.6962 71.7981C87.0052 71.7981 86.3222 71.9106 85.6473 72.1356C84.9884 72.3445 84.426 72.6337 83.96 73.0033L82.6101 70.376C83.3172 69.8778 84.1689 69.4921 85.1652 69.2189C86.1615 68.9458 87.1739 68.8092 88.2024 68.8092C90.1789 68.8092 91.7136 69.2752 92.8063 70.2072C93.899 71.1393 94.4454 72.5936 94.4454 74.5701V81.9702H90.9262ZM86.973 82.163C85.9606 82.163 85.0929 81.9943 84.3698 81.6568C83.6466 81.3033 83.0922 80.8292 82.7066 80.2347C82.3209 79.6401 82.1281 78.9732 82.1281 78.234C82.1281 77.4627 82.3129 76.7877 82.6825 76.2092C83.0681 75.6307 83.6707 75.1808 84.4903 74.8594C85.3098 74.5219 86.3785 74.3532 87.6962 74.3532H91.1431V76.5467H88.1059C87.2221 76.5467 86.6115 76.6913 86.274 76.9806C85.9526 77.2698 85.7919 77.6314 85.7919 78.0653C85.7919 78.5473 85.9767 78.933 86.3463 79.2223C86.732 79.4955 87.2543 79.632 87.9131 79.632C88.5398 79.632 89.1023 79.4874 89.6004 79.1982C90.0986 78.8928 90.4601 78.4509 90.6851 77.8724L91.2636 79.6079C90.9904 80.4436 90.4923 81.0783 89.7691 81.5122C89.046 81.9461 88.114 82.163 86.973 82.163Z" fill="white"/>
<path d="M74.2982 68.8092C75.3266 68.8092 76.2346 69.0181 77.022 69.4359C77.8255 69.8376 78.4522 70.4643 78.9021 71.316C79.3681 72.1516 79.6011 73.2283 79.6011 74.546V81.9702H75.8409V75.1245C75.8409 74.08 75.6239 73.3087 75.19 72.8105C74.7562 72.3123 74.1455 72.0633 73.3581 72.0633C72.8117 72.0633 72.3216 72.1918 71.8877 72.4489C71.4539 72.69 71.1164 73.0596 70.8754 73.5577C70.6343 74.0559 70.5138 74.6906 70.5138 75.462V81.9702H66.7535V75.1245C66.7535 74.08 66.5366 73.3087 66.1027 72.8105C65.6849 72.3123 65.0823 72.0633 64.2949 72.0633C63.7485 72.0633 63.2584 72.1918 62.8245 72.4489C62.3906 72.69 62.0531 73.0596 61.8121 73.5577C61.5711 74.0559 61.4505 74.6906 61.4505 75.462V81.9702H57.6902V69.002H61.2818V72.5454L60.6069 71.5089C61.0568 70.625 61.6916 69.9581 62.5111 69.5082C63.3467 69.0422 64.2949 68.8092 65.3554 68.8092C66.5446 68.8092 67.5811 69.1145 68.4649 69.7251C69.3648 70.3197 69.9594 71.2357 70.2486 72.473L68.9229 72.1115C69.3568 71.0991 70.0478 70.2956 70.9959 69.701C71.96 69.1065 73.0608 68.8092 74.2982 68.8092Z" fill="white"/>
<path d="M48.9197 82.163C47.4413 82.163 46.1397 81.8738 45.0148 81.2953C43.906 80.7167 43.0463 79.9293 42.4356 78.933C41.825 77.9206 41.5197 76.7717 41.5197 75.4861C41.5197 74.1845 41.8169 73.0355 42.4115 72.0392C43.0222 71.0268 43.8497 70.2394 44.8943 69.6769C45.9388 69.0984 47.1199 68.8092 48.4376 68.8092C49.7071 68.8092 50.8481 69.0824 51.8604 69.6287C52.8889 70.159 53.7004 70.9304 54.295 71.9427C54.8896 72.9391 55.1868 74.1362 55.1868 75.5343C55.1868 75.6789 55.1788 75.8477 55.1627 76.0405C55.1467 76.2173 55.1306 76.386 55.1145 76.5467H44.5809V74.3532H53.138L51.6917 75.004C51.6917 74.3291 51.5551 73.7425 51.2819 73.2444C51.0087 72.7462 50.6311 72.3606 50.149 72.0874C49.6669 71.7981 49.1045 71.6535 48.4617 71.6535C47.8189 71.6535 47.2485 71.7981 46.7503 72.0874C46.2682 72.3606 45.8906 72.7543 45.6174 73.2685C45.3442 73.7666 45.2076 74.3612 45.2076 75.0522V75.6307C45.2076 76.3378 45.3603 76.9645 45.6656 77.5109C45.987 78.0412 46.4289 78.4509 46.9913 78.7402C47.5699 79.0134 48.2448 79.15 49.0161 79.15C49.7071 79.15 50.3097 79.0455 50.824 78.8366C51.3542 78.6277 51.8363 78.3143 52.2702 77.8965L54.2709 80.0659C53.6763 80.7409 52.9291 81.2631 52.0292 81.6327C51.1293 81.9862 50.0928 82.163 48.9197 82.163Z" fill="white"/>
<path d="M33.6058 68.8092C34.6343 68.8092 35.5503 69.0181 36.3537 69.4359C37.1733 69.8376 37.8161 70.4643 38.2821 71.316C38.7481 72.1516 38.9811 73.2283 38.9811 74.546V81.9702H35.2208V75.1245C35.2208 74.08 34.9878 73.3087 34.5218 72.8105C34.0718 72.3123 33.4291 72.0633 32.5934 72.0633C31.9989 72.0633 31.4605 72.1918 30.9785 72.4489C30.5124 72.69 30.1428 73.0676 29.8697 73.5818C29.6125 74.0961 29.484 74.7549 29.484 75.5584V81.9702H25.7237V69.002H29.3152V72.5936L28.6403 71.5089C29.1063 70.6411 29.7732 69.9742 30.641 69.5082C31.5087 69.0422 32.497 68.8092 33.6058 68.8092Z" fill="white"/>
<path d="M18.4737 81.9702V69.002H22.234V81.9702H18.4737ZM20.3538 67.1942C19.6628 67.1942 19.1004 66.9933 18.6665 66.5916C18.2326 66.1898 18.0157 65.6917 18.0157 65.0971C18.0157 64.5025 18.2326 64.0044 18.6665 63.6026C19.1004 63.2009 19.6628 63 20.3538 63C21.0448 63 21.6072 63.1928 22.0411 63.5785C22.475 63.9481 22.6919 64.4302 22.6919 65.0248C22.6919 65.6515 22.475 66.1737 22.0411 66.5916C21.6233 66.9933 21.0609 67.1942 20.3538 67.1942Z" fill="white"/>
<path d="M9.13557 82.2594C7.83393 82.2594 6.62068 82.0505 5.4958 81.6327C4.387 81.1988 3.42282 80.5882 2.60328 79.8008C1.78373 79.0134 1.14094 78.0894 0.674923 77.0288C0.224974 75.9682 0 74.8031 0 73.5336C0 72.2641 0.224974 71.0991 0.674923 70.0385C1.14094 68.9779 1.78373 68.0539 2.60328 67.2665C3.43889 66.4791 4.41111 65.8765 5.51991 65.4586C6.62871 65.0248 7.84196 64.8078 9.15967 64.8078C10.622 64.8078 11.9397 65.0649 13.1128 65.5792C14.3019 66.0773 15.2983 66.8165 16.1017 67.7968L13.5949 70.1108C13.0164 69.4519 12.3736 68.9618 11.6665 68.6404C10.9595 68.303 10.1881 68.1342 9.35251 68.1342C8.5651 68.1342 7.84196 68.2628 7.18311 68.5199C6.52426 68.777 5.95379 69.1466 5.4717 69.6287C4.98961 70.1108 4.61198 70.6813 4.33879 71.3401C4.08168 71.999 3.95312 72.7301 3.95312 73.5336C3.95312 74.3371 4.08168 75.0683 4.33879 75.7271C4.61198 76.386 4.98961 76.9564 5.4717 77.4385C5.95379 77.9206 6.52426 78.2902 7.18311 78.5473C7.84196 78.8045 8.5651 78.933 9.35251 78.933C10.1881 78.933 10.9595 78.7723 11.6665 78.4509C12.3736 78.1135 13.0164 77.6073 13.5949 76.9323L16.1017 79.2464C15.2983 80.2266 14.3019 80.9739 13.1128 81.4881C11.9397 82.0023 10.614 82.2594 9.13557 82.2594Z" fill="white"/>
</svg>
